<?xml version="1.0" standalone="no"?>
<!DOCTYPE svg PUBLIC "-//W3C//DTD SVG 20010904//EN"
 "http://www.w3.org/TR/2001/REC-SVG-20010904/DTD/svg10.dtd">
<svg version="1.0" xmlns="http://www.w3.org/2000/svg"
 width="536.000000pt" height="536.000000pt" viewBox="0 0 536.000000 536.000000"
 preserveAspectRatio="xMidYMid meet">
<metadata>
Created by potrace 1.11, written by Peter Selinger 2001-2013
</metadata>
<g transform="translate(0.000000,536.000000) scale(0.100000,-0.100000)"
fill="#000000" stroke="none">
<path d="M1557 3852 c-898 -898 -1127 -1132 -1127 -1152 0 -37 2244 -2291
2280 -2290 19 0 271 246 1152 1128 995 995 1128 1131 1128 1157 0 27 -132 163
-1128 1158 -895 895 -1132 1127 -1152 1127 -20 0 -257 -232 -1153 -1128z
m2228 -82 l1070 -1070 -1073 -1073 -1072 -1072 -1072 1072 -1073 1073 1070
1070 c588 588 1072 1070 1075 1070 3 0 487 -482 1075 -1070z"/>
<path d="M1813 3608 c-485 -485 -884 -890 -887 -902 -6 -24 47 -79 1044 -1079
565 -566 720 -717 740 -717 19 0 209 184 893 868 766 765 897 900 897 927 0
11 -1740 1759 -1763 1772 -12 7 -26 12 -32 13 -5 0 -407 -397 -892 -882z
m1727 -83 l825 -825 -828 -828 -827 -827 -827 827 -828 828 825 825 c454 454
827 825 830 825 3 0 376 -371 830 -825z"/>
<path d="M2057 3352 c-496 -496 -627 -632 -627 -652 0 -20 132 -157 633 -658
348 -347 639 -632 647 -632 8 0 299 285 647 632 502 502 633 638 633 658 0 37
-1243 1280 -1280 1280 -20 0 -157 -132 -653 -628z m1238 -72 l580 -580 -583
-583 -582 -582 -582 582 -583 583 580 580 c319 319 582 580 585 580 3 0 266
-261 585 -580z"/>
<path d="M2566 2841 c-119 -119 -137 -141 -128 -157 17 -30 257 -264 272 -264
15 0 255 234 272 264 9 16 -9 38 -128 157 -76 77 -141 139 -144 139 -3 0 -68
-62 -144 -139z"/>
</g>
</svg>
