<?xml version="1.0" encoding="utf-8"?>
<svg version="1.1" id="layer" xmlns="http://www.w3.org/2000/svg" xmlns:xlink="http://www.w3.org/1999/xlink" x="0px" y="0px"
     viewBox="10 16 320 320" xml:space="preserve">
<path fill="#1493ff" d="M170.2,328.3C263.2,274.1,320.6,174.7,321,67c0-0.9-0.5-1.7-1.3-2.2c-38.8-22.1-82-35.4-126.5-39
	c-0.9-0.1-1.7,0.3-2.3,1c-12,15.7-22.3,32.6-30.7,50.5c-0.2,0.4-0.1,0.9,0.3,1.1c0.1,0.1,0.3,0.1,0.5,0.1h7.8
	c33.1,0,65.9,6.6,96.4,19.3c-8.6,66.4-43.3,126.6-96.4,167.2c-10.6-8.1-20.5-17-29.6-26.6c-0.3-0.4-0.9-0.4-1.3,0
	c-0.2,0.2-0.3,0.5-0.3,0.7c5,31.2,15.2,61.2,30.3,88.9C168.6,328.8,169.6,328.9,170.2,328.3C170.2,328.3,170.2,328.3,170.2,328.3z"
/>
    <path fill="#1493ff" d="M116.4,210.3c-6.1-8.6-11.6-17.5-16.5-26.7c5-2.4,10.2-4.6,15.4-6.4c1-0.3,1.7-1.2,1.7-2.3
	c1.2-18.6,4.2-37,8.9-55c0.1-0.5-0.2-1-0.7-1.1c-0.1,0-0.2,0-0.4,0c-15.5,3.3-30.6,8.2-45,14.8c-3.3-11.8-5.8-23.8-7.3-35.9
	c21-8.7,43-14.5,65.6-17.3c0.8-0.1,1.5-0.6,1.9-1.4c8-18.5,17.7-36.2,29.2-52.8c0.2-0.4,0.1-0.9-0.3-1.2c-0.1-0.1-0.3-0.1-0.4-0.1
	c-52.8,0-104.7,13.7-150.5,39.9c-0.8,0.5-1.4,1.4-1.4,2.3C17.6,161.6,62,250.4,137,307.8c0.4,0.3,1,0.2,1.2-0.3
	c0.1-0.2,0.2-0.5,0.1-0.8c-12.4-30.4-19.7-62.6-21.5-95.4C116.8,211,116.7,210.6,116.4,210.3z"/>
</svg>
