<svg xmlns="http://www.w3.org/2000/svg" viewBox="0 0 10.5 10.5" version="1.1">
    <g id="layer1" transform="translate(-74.7 -178.18)">
        <g id="g2814" transform="translate(.13 -.13)">
            <path d="m 84.133416,183.42631 h -1.64465 c -0.349603,0 -0.673806,-0.20743 -0.777169,-0.51788 -0.297745,-0.86783 -1.152525,-1.17898 -1.152525,-1.17898 -0.310798,-0.11642 -0.543984,-0.41381 -0.543984,-0.77646 v -1.64501 c 0,-0.45191 0.375709,-0.81456 0.828675,-0.81456 0.45332,0 0.815975,0.33655 0.815975,0.81456 l -0.0127,1.3208 1.903589,-1.90218 c 0.32385,-0.3242 0.841728,-0.3242 1.165578,0 0.32385,0.32209 0.32385,0.85302 0,1.17722 l -1.878189,1.86479 h 1.2954 c 0.453672,0 0.828675,0.37571 0.828675,0.82832 0,0.45367 -0.375003,0.82938 -0.828675,0.82938 m -0.01305,1.99249 -1.3208,-0.0127 1.903589,1.90359 c 0.32385,0.32385 0.32385,0.84173 0,1.16593 -0.323497,0.3235 -0.841728,0.3235 -1.165225,0 l -1.878189,-1.87819 v 1.29469 c 0,0.49248 -0.375355,0.82938 -0.829027,0.82938 -0.452967,0 -0.828675,-0.3757 -0.828675,-0.82938 v -1.64429 c 0,-0.34996 0.220133,-0.67416 0.531283,-0.77717 0.86748,-0.2981 1.165225,-1.15147 1.165225,-1.15147 0.116416,-0.31044 0.427566,-0.54363 0.777169,-0.54363 h 1.64465 c 0.45332,0 0.829028,0.37606 0.829028,0.82832 0,0.45226 -0.33655,0.81492 -0.829028,0.81492 m -5.295547,3.28965 c -0.453319,0 -0.815975,-0.2981 -0.803275,-0.81633 l 0.01305,-1.3208 -1.903589,1.9043 c -0.323497,0.3235 -0.85478,0.3235 -1.165225,0 -0.324203,-0.3242 -0.324203,-0.85549 0,-1.16593 l 1.864431,-1.87819 h -1.281995 c -0.466372,0 -0.828675,-0.37536 -0.828675,-0.82762 0,-0.45226 0.362303,-0.82832 0.828675,-0.82832 h 1.645003 c 0.34925,0 0.6604,0.20743 0.776817,0.51788 0.297744,0.87912 1.139472,1.17722 1.139472,1.17722 0.323497,0.11641 0.544336,0.41451 0.544336,0.77717 v 1.64429 c 0,0.45368 -0.363008,0.81633 -0.829028,0.81633 m 0.297745,-6.9656 c -0.867834,0.3108 -1.165578,1.15218 -1.165578,1.15218 -0.11677,0.31079 -0.427214,0.54433 -0.77717,0.54433 h -1.64465 c -0.453319,0 -0.828675,-0.37571 -0.828675,-0.82902 0,-0.45297 0.310798,-0.81563 0.828675,-0.81563 l 1.321506,0.0127 -1.904294,-1.90359 c -0.32385,-0.3242 -0.32385,-0.84172 0,-1.16452 0.32385,-0.32385 0.841727,-0.32385 1.165577,0 l 1.877836,1.87678 v -1.29504 c 0,-0.45191 0.362656,-0.82762 0.829028,-0.82762 0.452967,0 0.815622,0.37571 0.815622,0.82762 v 1.64429 c 0,0.35031 -0.207433,0.67346 -0.517877,0.77752" id="path2685" fill="#15366f" fill-opacity="1" fill-rule="nonzero" stroke="none" stroke-width=".35"/>
        </g>
    </g>
</svg>