<svg viewBox="0 0 1024 1024" xmlns="http://www.w3.org/2000/svg">
    <g fill="none" fill-rule="evenodd">
        <path d="M0 0H1024V1024H0z"/>
        <g fill-rule="nonzero">
            <path d="M553.23003,112.159636 L22.7361011,5.26392779 C15.0236843,3.71879476 7.53125261,8.77321298 6.00429761,16.5708971 L3.20919355,30.7127926 C1.67576841,38.5104767 6.67719304,46.0986512 14.3960799,47.6568786 L544.890009,154.546039 C552.595955,156.097719 560.088387,151.030207 561.628282,143.232523 L564.410446,129.097174 C565.937401,121.306037 560.929506,113.711316 553.23003,112.159636 Z M24.1660039,34.9226254 C20.3162656,34.1500589 17.8187884,30.352698 18.5822659,26.4571296 C19.3457434,22.555014 23.0854891,20.0212577 26.9481676,20.8003714 C30.8173163,21.5794851 33.2953831,25.3702987 32.5319056,29.2724144 C31.7684281,33.17453 28.0351525,35.7082863 24.1660039,34.9226254 Z M540.988509,139.075067 C537.132301,138.295954 534.628353,134.50514 535.391831,130.603024 C536.174719,126.694361 539.901524,124.1737 543.777143,124.952813 C547.626881,125.718833 550.124358,129.516193 549.360881,133.418309 C548.597403,137.320425 544.864128,139.847634 540.988509,139.075067 Z" fill="#ECA300" transform="rotate(95 303.27 367.07)"/>
            <g fill="#22223C">
                <path transform="rotate(-73.77 424.68 -332.37)" d="M4.2 3.45H18.43V32.27H4.2z"/>
                <path transform="rotate(-73.74 468.27 -248.68)" d="M62.74 21.91H69.86V43.510000000000005H62.74z"/>
                <path transform="rotate(-73.76 528.4 -160.66)" d="M122.85 27.36H137.07999999999998V56.17H122.85z"/>
                <path transform="rotate(-73.74 578.14 -66.73)" d="M188.37 47.18H195.49V68.78H188.37z"/>
                <path transform="rotate(-73.76 638.17 21.3)" d="M248.47 52.69H262.69V81.5H248.47z"/>
                <path transform="rotate(-73.74 687.97 115.26)" d="M314 72.48H321.12V94.09H314z"/>
                <path transform="rotate(-73.69 748.32 203.14)" d="M374.09 78.01H388.32V106.82000000000001H374.09z"/>
                <path transform="rotate(-73.7 798.07 297.28)" d="M439.68 97.79H446.79V119.4H439.68z"/>
            </g>
            <path d="M241.17459,148.975292 L238.385956,134.859585 C236.865471,127.055354 229.353629,121.987842 221.654153,123.539522 L-68.39512,178.120986 C-76.0945964,179.666119 -81.1154315,187.254293 -79.5820063,195.058525 L-76.8063127,209.187326 C-75.2664174,216.98501 -67.7739857,222.05907 -60.0745092,220.507389 L229.987704,165.912831 C237.700121,164.361151 242.708015,156.779523 241.17459,148.975292 Z M-56.1859501,205.049512 C-60.0356884,205.822078 -63.7754341,203.288322 -64.5389116,199.379659 C-65.3023891,195.484091 -62.811382,191.68673 -58.9487034,190.927258 C-55.0989652,190.141597 -51.3462792,192.675353 -50.5763316,196.590563 C-49.8128541,200.473037 -52.3168014,204.263851 -56.1859501,205.049512 Z M222.258585,152.693944 C218.389436,153.46651 214.64969,150.926207 213.879743,147.037186 C213.116265,143.128523 215.620213,139.350803 219.463481,138.57169 C223.332629,137.786029 227.085315,140.33288 227.842323,144.228448 C228.61874,148.117469 226.114793,151.921377 222.258585,152.693944 Z" fill="#ECA300" transform="rotate(100 49.47 654.5)"/>
            <path fill="#22223C" transform="rotate(88.76 -1.72 791.72)" d="M77.09 254.76H91.32000000000001V283.56H77.09z"/>
            <path fill="#22223C" transform="rotate(88.76 .47 726.88)" d="M82.73 193.53H89.86V215.14H82.73z"/>
            <path fill="#22223C" transform="rotate(88.73 -4.62 662.22)" d="M74.31 125.16H88.54V153.97H74.31z"/>
            <path fill="#22223C" transform="rotate(88.74 -2.42 597.35)" d="M79.97 63.91H87.09V85.50999999999999H79.97z"/>
            <g>
                <path d="M564.669252,31.4657176 L561.880618,17.3500107 C560.360133,9.5457795 552.848291,4.47826692 545.148814,6.02994713 L14.6225351,112.683409 C6.92305867,114.228542 1.9022236,121.816717 3.43564874,129.620948 L6.21134236,143.749749 C7.75123765,151.547433 15.2436694,156.621493 22.9431458,155.069813 L553.482365,48.4032564 C561.194782,46.8515762 566.202677,39.2699489 564.669252,31.4657176 Z M26.831705,139.611936 C22.9819667,140.384502 19.242221,137.850746 18.4787435,133.942083 C17.715266,130.046515 20.2062731,126.249154 24.0689516,125.489681 C27.9186899,124.704021 31.6713759,127.237777 32.4413235,131.152987 C33.204801,135.035461 30.7008536,138.826275 26.831705,139.611936 Z M543.718912,35.6886447 C539.849763,36.4612113 536.110017,33.9209078 535.34007,30.0318865 C534.576592,26.1232237 537.08054,22.3455044 540.923808,21.5663907 C544.792956,20.7807299 548.545642,23.3275805 549.30265,27.2231489 C550.079067,31.1121702 547.57512,34.9160782 543.718912,35.6886447 Z" fill="#FABC21" transform="rotate(85 203.28 313.94)"/>
                <g fill="#22223C">
                    <path transform="rotate(73.76 94.63 343.28)" d="M436.69 3.19H450.92V32H436.69z"/>
                    <path transform="rotate(73.72 102.02 348.63)" d="M383.75 14.45H390.85V36.05H383.75z"/>
                    <path transform="rotate(73.77 111.57 353.48)" d="M318.03 27.04H332.27V55.84H318.03z"/>
                    <path transform="rotate(73.74 120.07 359.44)" d="M258.07 39.71H265.19V61.32H258.07z"/>
                    <path transform="rotate(73.76 129.41 364.31)" d="M192.41 52.28H206.64V81.08H192.41z"/>
                    <path transform="rotate(73.76 138.07 370.2)" d="M132.43 64.98H139.56V86.59H132.43z"/>
                    <path transform="rotate(73.73 147.29 375.22)" d="M66.77 77.55H81V106.36H66.77z"/>
                    <path transform="rotate(73.74 155.95 381.12)" d="M6.76 90.24H13.879999999999999V111.84H6.76z"/>
                </g>
            </g>
        </g>
    </g>
</svg>